<svg width="36" height="36" viewBox="0 0 36 36" fill="none" xmlns="http://www.w3.org/2000/svg">
<path d="M33.4624 8.06219C27.1842 -1.97304 12.3296 -2.74732 4.83202 6.34099C2.2793 9.43555 0.490257 13.1374 0 17.1338C0 17.1338 0.75847 16.6277 1.21332 16.4029C1.06824 17.3302 0.995705 18.2673 0.996273 19.2057C0.996273 28.0634 8.04216 36.1773 17.3304 35.9962C11.8916 30.8365 8.43385 22.5544 11.3258 15.3177C12.083 13.4231 13.0359 12.1674 14.6654 10.933C16.9822 9.17788 20.58 8.90147 23.0595 10.4852C24.2426 11.2327 25.0938 12.4013 25.4386 13.752C25.7834 15.1028 25.5959 16.5334 24.9144 17.7513C25.1702 17.7166 27.1719 23.7716 25.5786 21.9591C23.9473 20.1042 21.5777 19.0188 19.3518 18.0495C18.593 17.719 17.9998 17.2734 17.3302 16.8203C17.3095 17.2235 17.2138 17.6278 17.191 18.0325C16.9612 22.2199 18.1538 25.7987 22.1603 27.7156C27.2005 30.1269 32.6208 27.3279 34.7644 22.4942C36.908 17.6604 36.1274 12.3223 33.4624 8.06219ZM16.6318 7.4251C16.6273 7.42925 16.6225 7.4331 16.6175 7.43665C16.4931 7.54078 16.3494 7.61951 16.1944 7.66838C16.0394 7.71725 15.8762 7.73528 15.7142 7.72144C15.5522 7.7076 15.3946 7.66217 15.2502 7.58774C15.1059 7.51331 14.9777 7.41134 14.873 7.28765C14.8687 7.28219 14.8639 7.27704 14.8588 7.27223C14.7058 7.09116 14.6077 6.87051 14.5761 6.63608C14.5445 6.40165 14.5807 6.16312 14.6805 5.94839C14.7802 5.73365 14.9394 5.55157 15.1394 5.42343C15.3394 5.29529 15.5719 5.2264 15.8099 5.22479C15.993 5.22656 16.1736 5.26739 16.3394 5.3445C16.5053 5.42162 16.6526 5.53322 16.7713 5.67178C16.9861 5.92297 17.0919 6.24852 17.0657 6.57714C17.0395 6.90577 16.8834 7.21068 16.6315 7.4251H16.6318ZM20.9166 6.34356C20.9122 6.3486 20.9075 6.35331 20.9024 6.35769C20.6506 6.56791 20.3252 6.67017 19.9976 6.64199C19.67 6.61381 19.3671 6.45749 19.1554 6.2074C19.1509 6.20323 19.147 6.19848 19.1438 6.19327C18.9908 6.01236 18.8928 5.79194 18.8611 5.55774C18.8294 5.32355 18.8654 5.08523 18.9648 4.87058C19.0643 4.65594 19.223 4.47383 19.4226 4.3455C19.6223 4.21718 19.8545 4.14792 20.0922 4.14582C20.2754 4.14728 20.4561 4.18796 20.622 4.2651C20.7879 4.34224 20.9351 4.45401 21.0536 4.59282C21.2688 4.84312 21.3753 5.16809 21.3496 5.49636C21.3239 5.82462 21.1682 6.12934 20.9166 6.34356V6.34356ZM25.0711 8.10329C25.0672 8.10714 25.062 8.11101 25.0581 8.11486C24.9336 8.2193 24.7895 8.29832 24.6342 8.34742C24.479 8.39652 24.3155 8.41473 24.1531 8.40101C23.9908 8.38729 23.8328 8.34191 23.6881 8.26747C23.5434 8.19302 23.4148 8.09098 23.3098 7.96714C23.3067 7.9626 23.3032 7.9583 23.2994 7.9543C23.1457 7.77352 23.0471 7.55297 23.0149 7.31847C22.9827 7.08398 23.0184 6.84524 23.1178 6.63017C23.2172 6.4151 23.3761 6.23261 23.576 6.10405C23.7759 5.9755 24.0085 5.9062 24.2466 5.90426C24.4298 5.90529 24.6107 5.94578 24.7767 6.02294C24.9426 6.10011 25.0897 6.21212 25.208 6.35126C25.4232 6.6018 25.5296 6.92697 25.504 7.25543C25.4783 7.58388 25.3226 7.8888 25.0711 8.10329V8.10329Z" fill="white"/>
<path d="M22.2757 15.2793C22.3307 15.2979 22.7469 15.427 22.9734 15.4915C23.1435 15.5398 23.0969 15.3887 23.1015 15.2713C23.1144 14.9293 23.2339 14.4674 23.0655 14.1475C22.7993 13.6692 22.2117 13.6542 21.7604 13.4442C21.6762 13.4056 21.5934 13.4185 21.572 13.5084C21.4762 13.9099 21.4211 14.4311 21.6826 14.7994C21.8126 15.0277 22.0243 15.199 22.2757 15.2793Z" fill="white"/>
</svg>
